<?xml version="1.0" standalone="no"?>
<!DOCTYPE svg PUBLIC "-//W3C//DTD SVG 20010904//EN"
 "http://www.w3.org/TR/2001/REC-SVG-20010904/DTD/svg10.dtd">
<svg version="1.0" xmlns="http://www.w3.org/2000/svg"
 width="400.000000pt" height="400.000000pt" viewBox="0 0 400.000000 400.000000"
 preserveAspectRatio="xMidYMid meet">
<metadata>
Created by potrace 1.14, written by Peter Selinger 2001-2017
</metadata>
<g transform="translate(0.000000,400.000000) scale(0.100000,-0.100000)"
fill="#000000" stroke="none">
<path d="M2995 2441 c-55 -14 -112 -50 -154 -97 -22 -26 -41 -50 -41 -54 0 -7
75 -60 85 -60 3 0 19 15 35 34 39 44 87 66 142 66 94 0 152 -58 145 -143 -6
-64 -39 -104 -158 -190 -130 -94 -197 -159 -225 -221 -25 -54 -38 -154 -23
-177 6 -11 65 -14 279 -14 l270 -1 0 53 c0 29 -3 53 -7 54 -5 0 -99 0 -210 1
-112 1 -203 5 -203 10 0 5 9 26 20 48 21 42 59 75 192 169 93 66 151 126 176
181 24 55 21 166 -6 217 -51 98 -194 154 -317 124z"/>
<path d="M3686 2366 c-29 -39 -114 -157 -189 -262 -133 -186 -137 -192 -137
-242 l0 -52 196 -2 196 -3 1 -110 2 -110 55 -1 c30 0 57 3 60 7 3 4 4 55 4
113 l-2 106 45 0 44 0 -3 53 -3 52 -40 0 -40 0 -1 245 c-1 135 -2 252 -3 260
-1 12 -16 15 -66 16 l-66 1 -53 -71z m67 -273 l-1 -178 -126 0 c-69 0 -126 2
-126 4 0 2 22 33 48 70 27 36 84 114 126 174 43 59 78 107 79 107 1 0 1 -80 0
-177z"/>
<path d="M380 2209 c-67 -7 -115 -31 -156 -76 l-32 -35 2 49 1 48 -77 2 -77 1
2 -306 2 -307 75 0 75 0 5 180 c5 191 11 215 62 262 43 40 116 55 158 33 40
-21 45 -48 47 -245 0 -104 2 -199 2 -210 1 -19 8 -21 76 -21 46 0 75 4 76 10
4 49 0 433 -5 463 -20 109 -110 167 -236 152z"/>
<path d="M998 2215 c-2 -1 -28 -5 -59 -8 -252 -23 -354 -357 -168 -548 16 -17
55 -42 87 -57 49 -23 70 -27 152 -27 86 0 101 3 163 32 37 18 70 39 73 46 6
16 -43 117 -56 117 -5 0 -12 -5 -15 -10 -12 -19 -92 -49 -144 -53 -71 -6 -138
27 -169 82 -41 73 -47 71 187 71 l210 0 3 28 c5 48 -11 141 -33 183 -24 48
-67 92 -109 114 -28 14 -115 36 -122 30z m59 -152 c17 -16 36 -43 41 -60 l11
-33 -134 0 -135 0 11 28 c34 88 141 122 206 65z"/>
<path d="M2417 2209 c-127 -14 -199 -85 -192 -191 5 -80 52 -125 198 -188 81
-35 103 -57 92 -90 -16 -49 -137 -43 -216 12 l-26 18 -36 -55 -36 -55 34 -26
c19 -14 63 -35 97 -46 188 -58 362 35 345 185 -4 30 -16 62 -31 81 -25 33
-104 80 -188 111 -63 23 -82 44 -69 78 6 16 20 27 38 31 47 11 143 -10 158
-33 13 -21 25 -10 54 48 l30 58 -48 27 c-26 14 -66 28 -87 32 -21 3 -41 7 -44
8 -3 1 -36 -1 -73 -5z"/>
<path d="M1250 2197 c0 -2 9 -30 19 -63 39 -123 156 -504 165 -539 1 -5 41
-10 88 -11 l86 -1 15 41 c22 59 97 319 97 334 0 6 3 12 8 12 4 0 32 -87 62
-193 l56 -192 88 0 c51 0 90 4 92 10 122 405 174 580 174 591 0 11 -18 14 -78
14 l-78 0 -19 -72 c-11 -40 -20 -78 -21 -85 -1 -7 -11 -45 -23 -85 -11 -40
-29 -102 -39 -137 l-17 -64 -24 84 c-13 46 -41 144 -62 218 -22 74 -39 136
-39 137 0 2 -31 3 -70 3 l-69 -1 -15 -52 c-8 -28 -36 -127 -62 -219 l-47 -169
-12 39 c-7 21 -35 120 -61 220 l-49 183 -82 0 c-46 0 -83 -2 -83 -3z"/>
</g>
</svg>
